<?xml version="1.0" standalone="no"?>
<!DOCTYPE svg PUBLIC "-//W3C//DTD SVG 20010904//EN"
 "http://www.w3.org/TR/2001/REC-SVG-20010904/DTD/svg10.dtd">
<svg version="1.0" xmlns="http://www.w3.org/2000/svg"
 width="438.000000pt" height="432.000000pt" viewBox="0 0 438.000000 432.000000"
 preserveAspectRatio="xMidYMid meet">

<g transform="translate(0.000000,432.000000) scale(0.100000,-0.100000)"
fill="#000000" stroke="none">
<path d="M2305 4296 c-232 -58 -598 -319 -774 -553 -48 -64 -142 -240 -156
-291 l-7 -23 39 17 c67 30 214 64 348 81 186 22 636 22 805 -1 164 -22 282
-50 353 -85 36 -17 57 -23 57 -15 0 16 -45 136 -82 216 -41 90 -34 106 29 70
88 -49 221 -24 258 48 18 35 13 37 -26 9 -43 -30 -161 -37 -209 -12 -70 37
-101 124 -61 174 10 13 42 38 70 54 28 17 51 35 51 41 0 13 -80 82 -175 150
-153 111 -218 134 -367 133 -57 0 -125 -6 -153 -13z"/>
<path d="M1728 3015 c-2 -3 -87 -6 -189 -9 -239 -4 -288 -22 -234 -83 21 -23
26 -26 34 -13 30 46 19 -57 -26 -246 -14 -57 -16 -60 -42 -56 -41 6 -55 -19
-55 -96 0 -75 23 -140 68 -183 25 -25 26 -33 31 -140 3 -96 23 -221 50 -332 6
-23 1 -28 -59 -57 -37 -17 -74 -42 -82 -56 -9 -13 -22 -24 -29 -24 -19 0 -98
-98 -130 -160 -30 -59 -65 -177 -65 -222 0 -56 -18 -35 -22 27 -2 35 -6 66 -8
69 -8 7 -71 15 -193 26 -61 5 -148 12 -192 16 -44 4 -89 8 -100 10 -11 1 -31
3 -44 3 -13 1 -22 4 -18 7 3 3 84 -1 179 -10 242 -22 376 -28 358 -17 -8 5
-51 12 -95 15 -44 4 -102 9 -130 11 -27 3 -104 9 -170 15 -66 6 -140 13 -165
15 -25 2 -75 7 -112 11 -89 8 -88 -18 2 -58 83 -38 545 -170 715 -204 173 -35
371 -70 460 -80 33 -3 67 -8 75 -9 8 -2 51 -6 95 -10 44 -4 91 -8 105 -11 146
-23 708 -22 920 1 19 2 82 9 140 15 335 37 761 127 1085 229 184 59 266 91
272 108 8 20 -5 29 -25 16 -10 -5 -44 -8 -76 -6 -32 2 -55 0 -53 -4 3 -5 -9
-7 -26 -5 -26 2 -404 -28 -507 -42 -14 -1 -33 -4 -42 -4 -10 -1 -18 -6 -18
-11 0 -4 11 -7 25 -6 14 2 25 -1 25 -6 0 -5 -11 -9 -24 -9 -28 0 -36 -21 -36
-95 0 -60 -16 -45 -26 25 -7 54 -20 100 -46 162 -19 43 -22 47 -42 36 -20 -11
-21 -10 -3 9 17 20 17 22 -21 69 -44 55 -112 122 -112 111 0 -4 -16 3 -36 17
-20 13 -43 22 -50 19 -9 -3 -14 2 -14 16 0 12 -4 21 -8 21 -5 0 -16 6 -26 13
-17 12 -16 18 4 127 18 90 21 139 18 228 -4 102 -2 114 14 123 21 11 44 54 64
118 17 56 18 97 3 140 -10 28 -15 32 -43 29 -34 -3 -31 -11 -61 157 -8 44 -17
90 -20 102 -4 19 -2 22 17 20 15 -1 27 7 37 25 14 25 14 29 1 43 -41 40 -358
65 -845 65 -361 0 -395 -1 -395 -17 0 -15 -1 -15 -18 0 -18 16 -53 23 -64 12z
m902 -54 c136 -21 226 -50 267 -86 l38 -33 -1 -93 c-2 -122 -10 -179 -26 -194
-18 -18 -509 -50 -518 -35 -4 6 -22 10 -41 8 -29 -3 -34 -7 -37 -31 -4 -35 10
-53 46 -60 24 -5 33 -16 56 -77 22 -56 42 -85 95 -138 36 -36 59 -63 51 -60
-8 3 -41 13 -72 22 -31 9 -60 21 -63 26 -4 6 -28 22 -55 35 -62 31 -134 33
-170 5 -32 -25 -46 -25 -77 0 -55 43 -157 18 -246 -60 -28 -25 -55 -40 -71
-40 -26 0 -26 0 -11 30 8 16 29 40 46 52 26 20 83 120 103 181 3 9 19 20 36
24 34 6 50 28 50 67 0 24 -4 26 -40 26 -22 0 -40 -4 -40 -10 0 -11 -74 -13
-144 -4 l-46 7 0 53 c0 87 -38 244 -59 244 -19 0 -61 -107 -78 -197 l-17 -93
-43 0 c-61 0 -92 17 -98 54 -6 38 -17 166 -17 186 5 102 24 120 184 169 37 12
87 21 112 21 25 0 47 3 49 8 8 12 753 7 837 -7z m-1275 -522 c0 -187 -7 -200
-26 -46 -15 124 -4 255 20 232 3 -4 6 -87 6 -186z m1661 135 c7 -51 -2 -214
-15 -260 -6 -19 -9 32 -10 139 -1 163 10 217 25 121z m69 -133 c3 -5 1 -12 -5
-16 -5 -3 -10 1 -10 9 0 18 6 21 15 7z m-1110 -531 c8 -26 -11 -59 -34 -57
-11 0 -17 6 -14 14 6 16 -9 17 -25 1 -21 -21 -27 22 -8 57 17 32 19 32 46 18
16 -8 32 -23 35 -33z m854 -504 c28 -65 51 -122 51 -126 0 -5 -26 3 -57 17
-32 14 -78 34 -102 45 l-44 19 35 37 c45 46 70 95 61 119 -3 10 -3 16 0 13 3
-3 29 -59 56 -124z m-2532 98 c-3 -3 -12 -4 -19 -1 -8 3 -5 6 6 6 11 1 17 -2
13 -5z m43 2 c0 -11 -19 -15 -25 -6 -3 5 1 10 9 10 9 0 16 -2 16 -4z m30 -6
c0 -5 -2 -10 -4 -10 -3 0 -8 5 -11 10 -3 6 -1 10 4 10 6 0 11 -4 11 -10z
m2596 -36 c-5 -13 -10 -14 -18 -6 -6 6 -8 18 -4 28 5 13 10 14 18 6 6 -6 8
-18 4 -28z m-1429 -46 c0 -18 3 -45 6 -59 6 -22 1 -28 -35 -49 -28 -15 -40
-19 -36 -9 19 47 62 149 63 149 1 0 2 -15 2 -32z m119 -79 c-26 -17 -51 -28
-54 -25 -7 7 -5 9 38 35 55 33 71 24 16 -10z"/>
<path d="M225 1423 c4 -32 12 -101 19 -153 17 -130 -2 -464 -33 -560 -30 -97
-36 -147 -20 -167 10 -11 10 -14 2 -9 -24 14 -13 -6 14 -27 36 -29 79 -51 128
-67 22 -7 46 -17 53 -23 6 -5 12 -6 12 -2 0 4 7 2 15 -5 8 -7 15 -9 15 -5 0 4
7 2 15 -5 8 -7 15 -9 15 -5 0 4 7 2 15 -5 8 -7 15 -9 15 -5 0 4 7 2 15 -5 8
-7 15 -9 15 -5 0 4 7 2 15 -5 8 -7 15 -9 15 -5 0 4 7 2 15 -5 8 -7 15 -9 15
-5 0 4 6 2 13 -4 8 -6 17 -8 20 -5 3 3 12 2 19 -2 7 -5 22 -10 33 -12 27 -5
37 -8 57 -16 9 -4 23 -9 32 -10 8 -1 18 -5 22 -8 3 -4 12 -4 20 -1 8 3 14 0
14 -6 0 -6 3 -10 8 -10 4 1 9 0 12 -1 11 -4 56 -11 78 -12 12 0 22 -4 22 -9 0
-5 3 -8 8 -8 4 1 9 0 12 -1 13 -5 47 -11 68 -12 12 0 22 -4 22 -8 0 -4 11 -6
25 -5 14 2 27 0 30 -5 3 -5 16 -7 30 -5 14 1 25 -2 25 -6 0 -5 3 -8 7 -8 5 1
10 0 13 -1 14 -5 48 -11 77 -14 18 -1 35 -5 39 -8 3 -4 17 -4 30 -2 13 2 24 1
24 -4 0 -5 15 -9 33 -9 17 -1 46 -4 62 -7 17 -4 44 -8 60 -10 17 -2 30 -5 30
-6 0 -1 14 -3 30 -4 17 -2 53 -6 80 -10 28 -4 77 -10 110 -12 33 -2 96 -7 140
-11 157 -14 602 -7 785 12 90 10 200 24 233 31 12 2 42 6 66 9 24 2 51 6 60 9
9 3 33 7 53 10 21 3 57 10 80 15 24 6 57 12 73 15 17 3 39 8 50 11 11 2 58 13
105 24 47 11 96 24 110 29 14 5 28 10 33 11 17 2 63 13 77 18 8 3 23 7 32 9
28 6 361 115 393 129 17 8 60 27 98 44 43 19 67 36 67 46 0 10 -5 13 -12 9
-10 -6 -10 -4 0 8 16 20 10 58 -26 178 -22 74 -26 109 -30 270 -6 235 -6 234
11 365 8 61 13 112 11 114 -2 2 -41 -10 -86 -27 -344 -129 -854 -247 -1279
-296 -412 -48 -896 -44 -1299 12 -69 9 -146 17 -172 17 -27 0 -41 3 -35 8 7 5
-1 7 -20 5 -18 -3 -30 -1 -27 4 3 4 -5 8 -17 8 -40 0 -424 89 -584 136 -157
45 -354 112 -394 134 -22 12 -23 11 -16 -47z m1548 -310 c-7 -2 -19 -2 -25 0
-7 3 -2 5 12 5 14 0 19 -2 13 -5z m854 1 c-3 -3 -12 -4 -19 -1 -8 3 -5 6 6 6
11 1 17 -2 13 -5z m-694 -11 c-7 -2 -19 -2 -25 0 -7 3 -2 5 12 5 14 0 19 -2
13 -5z m-703 -153 c0 -5 -5 -10 -11 -10 -5 0 -7 5 -4 10 3 6 8 10 11 10 2 0 4
-4 4 -10z m53 -30 c-3 -11 -9 -17 -15 -14 -5 3 -4 12 3 20 16 19 18 18 12 -6z
m169 -22 c-8 -8 -9 -4 -5 13 4 13 8 18 11 10 2 -7 -1 -18 -6 -23z m59 -5 c-8
-15 -10 -15 -11 -2 0 17 10 32 18 25 2 -3 -1 -13 -7 -23z m50 -6 c-10 -9 -11
-8 -5 6 3 10 9 15 12 12 3 -3 0 -11 -7 -18z m59 -4 c0 -7 -4 -13 -9 -13 -5 0
-11 6 -14 13 -3 8 1 14 9 14 8 0 14 -6 14 -14z m-1385 -371 c-3 -3 -11 0 -18
7 -9 10 -8 11 6 5 10 -3 15 -9 12 -12z m65 -22 c8 -5 11 -10 5 -10 -5 0 -17 5
-25 10 -8 5 -10 10 -5 10 6 0 17 -5 25 -10z m50 -20 c8 -5 11 -10 5 -10 -5 0
-17 5 -25 10 -8 5 -10 10 -5 10 6 0 17 -5 25 -10z m113 -40 c38 -12 66 -24 64
-26 -5 -5 -148 43 -156 53 -3 3 1 4 9 1 8 -3 46 -15 83 -28z m202 -66 c44 -14
174 -50 290 -80 116 -29 202 -53 193 -54 -45 -1 -611 156 -573 159 6 0 46 -11
90 -25z m2802 -80 c-3 -3 -12 -4 -19 -1 -8 3 -5 6 6 6 11 1 17 -2 13 -5z m-40
-10 c-3 -3 -12 -4 -19 -1 -8 3 -5 6 6 6 11 1 17 -2 13 -5z m-130 -30 c-3 -3
-12 -4 -19 -1 -8 3 -5 6 6 6 11 1 17 -2 13 -5z m-2094 -21 c-7 -2 -19 -2 -25
0 -7 3 -2 5 12 5 14 0 19 -2 13 -5z m2004 1 c-3 -3 -12 -4 -19 -1 -8 3 -5 6 6
6 11 1 17 -2 13 -5z m-1917 -14 c20 -6 21 -8 5 -8 -11 0 -33 4 -50 8 -27 7
-27 8 -5 8 14 0 36 -4 50 -8z m1813 -7 c-7 -2 -19 -2 -25 0 -7 3 -2 5 12 5 14
0 19 -2 13 -5z m-1740 -10 c-7 -2 -21 -2 -30 0 -10 3 -4 5 12 5 17 0 24 -2 18
-5z m1684 1 c-3 -3 -12 -4 -19 -1 -8 3 -5 6 6 6 11 1 17 -2 13 -5z m-1582 -13
c26 -6 31 -9 15 -9 -14 -1 -43 3 -65 7 -26 6 -31 9 -15 9 14 1 43 -3 65 -7z
m1522 3 c-3 -3 -12 -4 -19 -1 -8 3 -5 6 6 6 11 1 17 -2 13 -5z m-64 -11 c-7
-2 -19 -2 -25 0 -7 3 -2 5 12 5 14 0 19 -2 13 -5z m-1365 -10 c-10 -2 -26 -2
-35 0 -10 3 -2 5 17 5 19 0 27 -2 18 -5z m1295 0 c-7 -2 -19 -2 -25 0 -7 3 -2
5 12 5 14 0 19 -2 13 -5z m-1215 -10 c-10 -2 -26 -2 -35 0 -10 3 -2 5 17 5 19
0 27 -2 18 -5z m1135 0 c-7 -2 -19 -2 -25 0 -7 3 -2 5 12 5 14 0 19 -2 13 -5z
m-1030 -10 c-13 -2 -35 -2 -50 0 -16 2 -5 4 22 4 28 0 40 -2 28 -4z m945 0
c-10 -2 -28 -2 -40 0 -13 2 -5 4 17 4 22 1 32 -1 23 -4z m-845 -10 c-13 -2
-33 -2 -45 0 -13 2 -3 4 22 4 25 0 35 -2 23 -4z m735 0 c-10 -2 -28 -2 -40 0
-13 2 -5 4 17 4 22 1 32 -1 23 -4z m-500 -10 c-32 -2 -84 -2 -115 0 -32 2 -6
3 57 3 63 0 89 -1 58 -3z m330 0 c-32 -2 -84 -2 -115 0 -32 2 -6 3 57 3 63 0
89 -1 58 -3z"/>
</g>
</svg>
